<?xml version="1.0" encoding="UTF-8" standalone="no"?><!DOCTYPE svg PUBLIC "-//W3C//DTD SVG 1.1//EN" "http://www.w3.org/Graphics/SVG/1.1/DTD/svg11.dtd"><svg width="100%" height="100%" viewBox="0 0 500 500" version="1.1" xmlns="http://www.w3.org/2000/svg" xmlns:xlink="http://www.w3.org/1999/xlink" xml:space="preserve" xmlns:serif="http://www.serif.com/" style="fill-rule:evenodd;clip-rule:evenodd;stroke-linecap:round;stroke-linejoin:round;stroke-miterlimit:1.5;"><g id="Layer1"><path d="M154.333,347.235l186.334,0" style="fill:none;stroke:#261632;stroke-width:3px;"/><path d="M129.333,305.901l239.334,0" style="fill:none;stroke:#261632;stroke-width:3px;"/><path d="M127.667,263.901l243.666,0" style="fill:none;stroke:#261632;stroke-width:3px;"/><path d="M129.667,176.568l237,0" style="fill:none;stroke:#261632;stroke-width:3px;"/><circle cx="120.667" cy="263.901" r="7.667" style="fill:#261632;"/><path d="M312,71.568l0,353.667" style="fill:none;stroke:#261632;stroke-width:3px;"/><path d="M270.667,20.901l0,470.667" style="fill:none;stroke:#261632;stroke-width:3px;"/><path d="M230,24.568l0,437.333" style="fill:none;stroke:#261632;stroke-width:3px;"/><path d="M186,99.901l0,297" style="fill:none;stroke:#261632;stroke-width:3px;"/><rect x="242.667" y="282.385" width="59.667" height="60.833" style="fill:#ef8354;"/><rect x="220.167" y="55.885" width="19.833" height="20.167" style="fill:#8bdedc;"/><rect x="259" y="158.885" width="40.833" height="41.5" style="fill:#8bdedc;"/><rect x="151.167" y="242.551" width="40.667" height="40.5" style="fill:#8bdedc;"/><rect x="322" y="290.051" width="39.167" height="38.5" style="fill:#8bdedc;"/><rect x="220.167" y="394.051" width="23" height="23.333" style="fill:#8bdedc;"/><rect x="261.333" y="429.385" width="18.083" height="19.333" style="fill:#e3abb5;"/><rect x="210" y="270.885" width="28.833" height="29" style="fill:#e3abb5;"/><rect x="256.5" y="60.551" width="31.667" height="31.833" style="fill:#e3abb5;"/><rect x="324.333" y="162.551" width="30.833" height="30.5" style="fill:#e3abb5;"/><rect x="213" y="101.718" width="40.667" height="40.5" style="fill:#fc6347;"/><rect x="197" y="196.218" width="60.833" height="59.5" style="fill:#e1bd3c;"/><rect x="297.167" y="246.218" width="40.5" height="40" style="fill:#e1bd3c;"/><rect x="216" y="336.551" width="30.5" height="30.167" style="fill:#e1bd3c;"/><rect x="170" y="205.051" width="22.167" height="22" style="fill:#fc6347;"/><rect x="249.5" y="247.718" width="32.333" height="31.167" style="fill:#fc6347;"/><rect x="169" y="334.051" width="30.5" height="30.333" style="fill:#fc6347;"/><rect x="297.167" y="338.051" width="31.667" height="31.333" style="fill:#fc6347;"/><rect x="259" y="114.718" width="25.667" height="25.667" style="fill:#e1bd3c;"/><rect x="163" y="146.385" width="40.667" height="41.333" style="fill:#ef8354;"/><rect x="303" y="204.885" width="31.167" height="30" style="fill:#ef8354;"/><rect x="294.833" y="115.218" width="39" height="39" style="fill:#8c9799;"/><rect x="220.167" y="164.051" width="20.5" height="20.667" style="fill:#8c9799;"/><rect x="262.667" y="211.051" width="21.167" height="21" style="fill:#8c9799;"/><rect x="252.333" y="369.551" width="40.333" height="39.333" style="fill:none;stroke:#353847;stroke-width:1px;"/><rect x="177.167" y="298.051" width="21" height="20.667" style="fill:#8c9799;"/><rect x="251" y="369.235" width="42.333" height="41.333" style="fill:#8c9799;"/><circle cx="270.5" cy="14.568" r="7.25" style="fill:#261632;"/><circle cx="379.333" cy="264.401" r="7.583" style="fill:#261632;"/><circle cx="230.042" cy="468.568" r="6.562" style="fill:#261632;"/></g></svg>