<?xml version="1.0" encoding="UTF-8" standalone="no"?><!DOCTYPE svg PUBLIC "-//W3C//DTD SVG 1.1//EN" "http://www.w3.org/Graphics/SVG/1.1/DTD/svg11.dtd"><svg width="100%" height="100%" viewBox="0 0 145 498" version="1.1" xmlns="http://www.w3.org/2000/svg" xmlns:xlink="http://www.w3.org/1999/xlink" xml:space="preserve" xmlns:serif="http://www.serif.com/" style="fill-rule:evenodd;clip-rule:evenodd;stroke-linejoin:round;stroke-miterlimit:2;"><path d="M42.917,123.137l14.333,124l-28.667,0l14.334,-124Z" style="fill:#e85548;"/><path d="M98.917,123.137l14.333,124l-28.667,0l14.334,-124Z" style="fill:#fdad15;"/><path d="M42.917,374.667l-14.334,-124l28.667,0l-14.333,124Z" style="fill:#e85548;"/><path d="M98.917,374.667l-14.334,-124l28.667,0l-14.333,124Z" style="fill:#fdad15;"/><path d="M42.917,124l-14.334,-124l28.667,0l-14.333,124Z" style="fill:#e85548;"/><path d="M98.917,124l-14.334,-124l28.667,0l-14.333,124Z" style="fill:#fdad15;"/><path d="M42.917,373.667l14.333,124l-28.667,0l14.334,-124Z" style="fill:#e85548;"/><path d="M98.917,373.667l14.333,124l-28.667,0l14.334,-124Z" style="fill:#fdad15;"/><path d="M14.292,248.667l-14.292,-225.01l28.583,0l-14.291,225.01Z" style="fill:#bdc21c;"/><path d="M70.958,248.667l-14.291,-225.01l28.583,0l-14.292,225.01Z" style="fill:#c6dcda;"/><path d="M130.292,248.667l-14.292,-225.01l28.583,0l-14.291,225.01Z" style="fill:#886c4c;"/><path d="M14.292,248.667l14.291,225.01l-28.583,0l14.292,-225.01Z" style="fill:#bdc21c;"/><path d="M70.958,248.667l14.292,225.01l-28.583,0l14.291,-225.01Z" style="fill:#c6dcda;"/><path d="M130.292,248.667l14.291,225.01l-28.583,0l14.292,-225.01Z" style="fill:#886c4c;"/></svg>