<?xml version="1.0" encoding="UTF-8" standalone="no"?><!DOCTYPE svg PUBLIC "-//W3C//DTD SVG 1.1//EN" "http://www.w3.org/Graphics/SVG/1.1/DTD/svg11.dtd"><svg width="100%" height="100%" viewBox="0 0 318 483" version="1.1" xmlns="http://www.w3.org/2000/svg" xmlns:xlink="http://www.w3.org/1999/xlink" xml:space="preserve" xmlns:serif="http://www.serif.com/" style="fill-rule:evenodd;clip-rule:evenodd;stroke-linecap:round;stroke-linejoin:round;stroke-miterlimit:1.5;"><g><path d="M151.333,65.417l0,183" style="fill:none;stroke:#353847;stroke-width:3px;"/><path d="M237.667,250l0,29.333" style="fill:none;stroke:#353847;stroke-width:3px;"/><rect x="118.333" y="0" width="67.667" height="67.667" style="fill:#bdc21c;"/><path d="M98.333,217.167l0,31.25" style="fill:none;stroke:#353847;stroke-width:3px;"/><rect x="63.333" y="150" width="69.333" height="68.667" style="fill:#886c4c;"/><rect x="201.667" y="276.667" width="72.667" height="73" style="fill:#c6dcda;"/><path d="M103.083,250.542l0,24.125" style="fill:none;stroke:#353847;stroke-width:3px;"/><path d="M212.333,250l0,40.333" style="fill:none;stroke:#353847;stroke-width:3px;"/><path d="M166,250l0,160" style="fill:none;stroke:#353847;stroke-width:3px;"/><path d="M146,250l0,116.667" style="fill:none;stroke:#353847;stroke-width:3px;"/><path d="M204.667,206l0,42" style="fill:none;stroke:#353847;stroke-width:3px;"/><path d="M222.667,185.667l0,62" style="fill:none;stroke:#353847;stroke-width:3px;"/><path d="M81.583,249.667l0,67" style="fill:none;stroke:#353847;stroke-width:3px;"/><path d="M77.833,193.917l0,54.25" style="fill:none;stroke:#353847;stroke-width:3px;"/><path d="M138.333,108.917l0,139.5" style="fill:none;stroke:#353847;stroke-width:3px;"/><circle cx="17.333" cy="249" r="12.333" style="fill:none;stroke:#353847;stroke-width:10px;"/><circle cx="300.333" cy="249" r="12.333" style="fill:none;stroke:#353847;stroke-width:10px;"/><rect x="129.333" y="409" width="74.333" height="73.667" style="fill:#353847;"/><rect x="102.667" y="37.829" width="70.667" height="70.341" style="fill:none;stroke:#353847;stroke-width:5px;"/><rect x="186" y="113" width="73" height="73.333" style="fill:#e85548;"/><rect x="168" y="133.489" width="72" height="71.023" style="fill:none;stroke:#fdad15;stroke-width:5px;"/><rect x="46.667" y="313.333" width="67.333" height="66" style="fill:#fdad15;"/><rect x="42.333" y="117.333" width="74.333" height="74.333" style="fill:none;stroke:#c6dcda;stroke-width:5px;"/><rect x="111.667" y="369" width="70.333" height="71" style="fill:none;stroke:#bdc21c;stroke-width:5px;"/><rect x="177" y="290.667" width="72" height="71.333" style="fill:none;stroke:#886c4c;stroke-width:5px;"/><path d="M28.833,248.917l258.75,0" style="fill:none;stroke:#353847;stroke-width:3px;"/><rect x="66.333" y="275.667" width="72.333" height="71.667" style="fill:none;stroke:#e85548;stroke-width:5px;"/></g></svg>