<?xml version="1.0" encoding="UTF-8" standalone="no"?><!DOCTYPE svg PUBLIC "-//W3C//DTD SVG 1.1//EN" "http://www.w3.org/Graphics/SVG/1.1/DTD/svg11.dtd"><svg width="100%" height="100%" viewBox="0 0 500 500" version="1.1" xmlns="http://www.w3.org/2000/svg" xmlns:xlink="http://www.w3.org/1999/xlink" xml:space="preserve" xmlns:serif="http://www.serif.com/" style="fill-rule:evenodd;clip-rule:evenodd;stroke-linecap:round;stroke-linejoin:round;stroke-miterlimit:1.5;"><g><path d="M242.5,75.115l0,183" style="fill:none;stroke:#261632;stroke-width:3px;"/><path d="M328.833,259.698l0,29.334" style="fill:none;stroke:#261632;stroke-width:3px;"/><rect x="209.5" y="9.698" width="67.667" height="67.667" style="fill:#e1bd3c;"/><path d="M189.5,226.865l0,31.25" style="fill:none;stroke:#261632;stroke-width:3px;"/><rect x="154.5" y="159.698" width="69.333" height="68.667" style="fill:#ef8354;"/><rect x="292.833" y="286.365" width="72.667" height="73" style="fill:#8c9799;"/><path d="M194.25,260.24l0,24.125" style="fill:none;stroke:#261632;stroke-width:3px;"/><path d="M303.5,259.698l0,40.334" style="fill:none;stroke:#261632;stroke-width:3px;"/><path d="M257.167,259.698l0,160" style="fill:none;stroke:#261632;stroke-width:3px;"/><path d="M237.167,259.698l0,116.667" style="fill:none;stroke:#261632;stroke-width:3px;"/><path d="M295.833,215.698l0,42" style="fill:none;stroke:#261632;stroke-width:3px;"/><path d="M313.833,195.365l0,62" style="fill:none;stroke:#261632;stroke-width:3px;"/><path d="M172.75,259.365l0,67" style="fill:none;stroke:#261632;stroke-width:3px;"/><path d="M169,203.615l0,54.25" style="fill:none;stroke:#261632;stroke-width:3px;"/><path d="M229.5,118.615l0,139.5" style="fill:none;stroke:#261632;stroke-width:3px;"/><circle cx="108.5" cy="258.698" r="12.333" style="fill:none;stroke:#261632;stroke-width:10px;"/><circle cx="391.5" cy="258.698" r="12.333" style="fill:none;stroke:#261632;stroke-width:10px;"/><rect x="220.5" y="418.698" width="74.333" height="73.667" style="fill:#261632;"/><rect x="193.833" y="47.528" width="70.667" height="70.341" style="fill:none;stroke:#261632;stroke-width:5px;"/><rect x="277.167" y="122.698" width="73" height="73.333" style="fill:#fc6347;"/><rect x="259.167" y="143.187" width="72" height="71.023" style="fill:none;stroke:#8bdedc;stroke-width:5px;"/><rect x="137.833" y="323.032" width="67.333" height="66" style="fill:#8bdedc;"/><rect x="133.5" y="127.032" width="74.333" height="74.333" style="fill:none;stroke:#8c9799;stroke-width:5px;"/><rect x="202.833" y="378.698" width="70.333" height="71" style="fill:none;stroke:#e1bd3c;stroke-width:5px;"/><rect x="268.167" y="300.365" width="72" height="71.333" style="fill:none;stroke:#ef8354;stroke-width:5px;"/><path d="M120,258.615l258.75,0" style="fill:none;stroke:#261632;stroke-width:3px;"/><rect x="157.5" y="285.365" width="72.333" height="71.667" style="fill:none;stroke:#fc6347;stroke-width:5px;"/></g></svg>