<?xml version="1.0" encoding="UTF-8" standalone="no"?><!DOCTYPE svg PUBLIC "-//W3C//DTD SVG 1.1//EN" "http://www.w3.org/Graphics/SVG/1.1/DTD/svg11.dtd"><svg width="100%" height="100%" viewBox="0 0 117 360" version="1.1" xmlns="http://www.w3.org/2000/svg" xmlns:xlink="http://www.w3.org/1999/xlink" xml:space="preserve" xmlns:serif="http://www.serif.com/" style="fill-rule:evenodd;clip-rule:evenodd;stroke-linejoin:round;stroke-miterlimit:2;"><rect x="54.615" y="0" width="6.985" height="359.217" style="fill:#886c4c;"/><path d="M54.541,42.982c0,0 4.4,-41.5 -54.5,-35.6c0,0 -3.5,40.3 54.5,35.6Z" style="fill:#999e9f;"/><path d="M54.541,131.268c0,0 4.4,-41.5 -54.5,-35.6c0,0 -3.5,40.3 54.5,35.6Z" style="fill:#bfc014;"/><path d="M54.541,87.082c0,0 4.4,-41.5 -54.5,-35.6c0,0 -3.5,40.3 54.5,35.6Z" style="fill:#e85548;"/><path d="M54.541,175.368c0,0 4.4,-41.5 -54.5,-35.6c0,0 -3.5,40.3 54.5,35.6Z" style="fill:#c3dcd9;"/><path d="M61.674,42.982c0,0 -4.4,-41.5 54.5,-35.6c0,0 3.5,40.3 -54.5,35.6Z" style="fill:#c3dcd9;"/><path d="M61.674,131.268c0,0 -4.4,-41.5 54.5,-35.6c0,0 3.5,40.3 -54.5,35.6Z" style="fill:#ffa500;"/><path d="M61.674,87.082c0,0 -4.4,-41.5 54.5,-35.6c0,0 3.5,40.3 -54.5,35.6Z" style="fill:#ffdab9;"/><path d="M61.674,175.368c0,0 -4.4,-41.5 54.5,-35.6c0,0 3.5,40.3 -54.5,35.6Z" style="fill:#999e9f;"/><path d="M54.541,220.348c0,0 4.4,-41.5 -54.5,-35.6c0,0 -3.5,40.3 54.5,35.6Z" style="fill:#886c4c;"/><path d="M54.541,309.205c0,0 4.4,-41.5 -54.5,-35.6c0,0 -3.5,40.3 54.5,35.6Z" style="fill:#999e9f;"/><path d="M54.541,264.448c0,0 4.4,-41.5 -54.5,-35.6c0,0 -3.5,40.3 54.5,35.6Z" style="fill:#ffa500;"/><path d="M54.541,353.305c0,0 4.4,-41.5 -54.5,-35.6c0,0 -3.5,40.3 54.5,35.6Z" style="fill:#ffdab9;"/><path d="M61.674,220.348c0,0 -4.4,-41.5 54.5,-35.6c0,0 3.5,40.3 -54.5,35.6Z" style="fill:#e85548;"/><path d="M61.674,309.205c0,0 -4.4,-41.5 54.5,-35.6c0,0 3.5,40.3 -54.5,35.6Z" style="fill:#886c4c;"/><path d="M61.674,264.448c0,0 -4.4,-41.5 54.5,-35.6c0,0 3.5,40.3 -54.5,35.6Z" style="fill:#c3dcd9;"/><path d="M61.674,353.305c0,0 -4.4,-41.5 54.5,-35.6c0,0 3.5,40.3 -54.5,35.6Z" style="fill:#bfc014;"/></svg>