<?xml version="1.0" encoding="UTF-8" standalone="no"?><!DOCTYPE svg PUBLIC "-//W3C//DTD SVG 1.1//EN" "http://www.w3.org/Graphics/SVG/1.1/DTD/svg11.dtd"><svg width="100%" height="100%" viewBox="0 0 131 360" version="1.1" xmlns="http://www.w3.org/2000/svg" xmlns:xlink="http://www.w3.org/1999/xlink" xml:space="preserve" xmlns:serif="http://www.serif.com/" style="fill-rule:evenodd;clip-rule:evenodd;stroke-linejoin:round;stroke-miterlimit:2;"><path d="M61.533,220.348c0,0 4.4,-41.5 -54.5,-35.6c0,0 -3.5,40.3 54.5,35.6Z" style="fill:#261632;"/><path d="M61.533,309.205c0,0 4.4,-41.5 -54.5,-35.6c0,0 -3.5,40.3 54.5,35.6Z" style="fill:#8c9799;"/><path d="M61.533,264.448c0,0 4.4,-41.5 -54.5,-35.6c0,0 -3.5,40.3 54.5,35.6Z" style="fill:#ef8354;"/><path d="M61.533,353.305c0,0 4.4,-41.5 -54.5,-35.6c0,0 -3.5,40.3 54.5,35.6Z" style="fill:#e3abb5;"/><path d="M68.667,220.348c0,0 -4.4,-41.5 54.5,-35.6c0,0 3.5,40.3 -54.5,35.6Z" style="fill:#fc6347;"/><path d="M68.667,309.205c0,0 -4.4,-41.5 54.5,-35.6c0,0 3.5,40.3 -54.5,35.6Z" style="fill:#261632;"/><path d="M68.667,264.448c0,0 -4.4,-41.5 54.5,-35.6c0,0 3.5,40.3 -54.5,35.6Z" style="fill:#e1bd3c;"/><path d="M68.667,353.305c0,0 -4.4,-41.5 54.5,-35.6c0,0 3.5,40.3 -54.5,35.6Z" style="fill:#8bdedc;"/><rect id="Artboard1" x="0" y="0" width="130.2" height="359.217" style="fill:none;"/><clipPath id="_clip1"><rect x="0" y="0" width="130.2" height="359.217"/></clipPath><g clip-path="url(#_clip1)"><rect x="61.607" y="-43.75" width="6.985" height="723.687" style="fill:#261632;"/><path d="M61.533,42.982c0,0 4.4,-41.5 -54.5,-35.6c0,0 -3.5,40.3 54.5,35.6Z" style="fill:#8c9799;"/><path d="M61.533,131.268c0,0 4.4,-41.5 -54.5,-35.6c0,0 -3.5,40.3 54.5,35.6Z" style="fill:#e1bd3c;"/><path d="M61.533,87.082c0,0 4.4,-41.5 -54.5,-35.6c0,0 -3.5,40.3 54.5,35.6Z" style="fill:#fc6347;"/><path d="M61.533,175.368c0,0 4.4,-41.5 -54.5,-35.6c0,0 -3.5,40.3 54.5,35.6Z" style="fill:#8bdedc;"/><path d="M68.667,42.982c0,0 -4.4,-41.5 54.5,-35.6c0,0 3.5,40.3 -54.5,35.6Z" style="fill:#8bdedc;"/><path d="M68.667,131.268c0,0 -4.4,-41.5 54.5,-35.6c0,0 3.5,40.3 -54.5,35.6Z" style="fill:#ef8354;"/><path d="M68.667,87.082c0,0 -4.4,-41.5 54.5,-35.6c0,0 3.5,40.3 -54.5,35.6Z" style="fill:#e3abb5;"/><path d="M68.667,175.368c0,0 -4.4,-41.5 54.5,-35.6c0,0 3.5,40.3 -54.5,35.6Z" style="fill:#8c9799;"/></g></svg>